<mxfile host="Electron" modified="2024-02-05T14:33:41.312Z" agent="Mozilla/5.0 (Windows NT 10.0; Win64; x64) AppleWebKit/537.36 (KHTML, like Gecko) draw.io/22.1.2 Chrome/114.0.5735.289 Electron/25.9.4 Safari/537.36" etag="o79Qcu0XzMFqQ5c-tN03" version="22.1.2" type="device">
  <diagram name="Page-1" id="gXKMvmrFsFs9hwFlO_cq">
    <mxGraphModel dx="1036" dy="606" grid="1" gridSize="10" guides="1" tooltips="1" connect="1" arrows="1" fold="1" page="1" pageScale="1" pageWidth="15000" pageHeight="15000" math="0" shadow="0">
      <root>
        <mxCell id="0" />
        <mxCell id="1" parent="0" />
        <mxCell id="Rm50v2PJgr8li1-ztX7_-1" value="Admin" style="shape=umlLifeline;perimeter=lifelinePerimeter;whiteSpace=wrap;html=1;container=1;dropTarget=0;collapsible=0;recursiveResize=0;outlineConnect=0;portConstraint=eastwest;newEdgeStyle={&quot;curved&quot;:0,&quot;rounded&quot;:0};labelBackgroundColor=none;fillColor=#F45B69;strokeColor=#028090;fontColor=#E4FDE1;" parent="1" vertex="1">
          <mxGeometry x="6800" y="5190" width="100" height="850" as="geometry" />
        </mxCell>
        <mxCell id="Rm50v2PJgr8li1-ztX7_-17" value="" style="html=1;points=[[0,0,0,0,5],[0,1,0,0,-5],[1,0,0,0,5],[1,1,0,0,-5]];perimeter=orthogonalPerimeter;outlineConnect=0;targetShapes=umlLifeline;portConstraint=eastwest;newEdgeStyle={&quot;curved&quot;:0,&quot;rounded&quot;:0};labelBackgroundColor=none;fillColor=#F45B69;strokeColor=#028090;fontColor=#E4FDE1;" parent="Rm50v2PJgr8li1-ztX7_-1" vertex="1">
          <mxGeometry x="40" y="60" width="17.5" height="80" as="geometry" />
        </mxCell>
        <mxCell id="Rm50v2PJgr8li1-ztX7_-21" value="" style="html=1;points=[[0,0,0,0,5],[0,1,0,0,-5],[1,0,0,0,5],[1,1,0,0,-5]];perimeter=orthogonalPerimeter;outlineConnect=0;targetShapes=umlLifeline;portConstraint=eastwest;newEdgeStyle={&quot;curved&quot;:0,&quot;rounded&quot;:0};labelBackgroundColor=none;fillColor=#F45B69;strokeColor=#028090;fontColor=#E4FDE1;" parent="Rm50v2PJgr8li1-ztX7_-1" vertex="1">
          <mxGeometry x="40" y="160" width="17.5" height="80" as="geometry" />
        </mxCell>
        <mxCell id="Rm50v2PJgr8li1-ztX7_-45" value="" style="html=1;points=[[0,0,0,0,5],[0,1,0,0,-5],[1,0,0,0,5],[1,1,0,0,-5]];perimeter=orthogonalPerimeter;outlineConnect=0;targetShapes=umlLifeline;portConstraint=eastwest;newEdgeStyle={&quot;curved&quot;:0,&quot;rounded&quot;:0};labelBackgroundColor=none;fillColor=#F45B69;strokeColor=#028090;fontColor=#E4FDE1;" parent="Rm50v2PJgr8li1-ztX7_-1" vertex="1">
          <mxGeometry x="41.25" y="350" width="17.5" height="80" as="geometry" />
        </mxCell>
        <mxCell id="Rm50v2PJgr8li1-ztX7_-59" value="" style="html=1;points=[[0,0,0,0,5],[0,1,0,0,-5],[1,0,0,0,5],[1,1,0,0,-5]];perimeter=orthogonalPerimeter;outlineConnect=0;targetShapes=umlLifeline;portConstraint=eastwest;newEdgeStyle={&quot;curved&quot;:0,&quot;rounded&quot;:0};labelBackgroundColor=none;fillColor=#F45B69;strokeColor=#028090;fontColor=#E4FDE1;" parent="Rm50v2PJgr8li1-ztX7_-1" vertex="1">
          <mxGeometry x="40" y="560" width="16.25" height="80" as="geometry" />
        </mxCell>
        <mxCell id="L1MMbvrIw0b0SEC1UpdS-14" value="" style="html=1;points=[[0,0,0,0,5],[0,1,0,0,-5],[1,0,0,0,5],[1,1,0,0,-5]];perimeter=orthogonalPerimeter;outlineConnect=0;targetShapes=umlLifeline;portConstraint=eastwest;newEdgeStyle={&quot;curved&quot;:0,&quot;rounded&quot;:0};labelBackgroundColor=none;fillColor=#F45B69;strokeColor=#028090;fontColor=#E4FDE1;" parent="Rm50v2PJgr8li1-ztX7_-1" vertex="1">
          <mxGeometry x="40" y="680" width="20" height="80" as="geometry" />
        </mxCell>
        <mxCell id="Rm50v2PJgr8li1-ztX7_-2" value="Student" style="shape=umlLifeline;perimeter=lifelinePerimeter;whiteSpace=wrap;html=1;container=1;dropTarget=0;collapsible=0;recursiveResize=0;outlineConnect=0;portConstraint=eastwest;newEdgeStyle={&quot;curved&quot;:0,&quot;rounded&quot;:0};labelBackgroundColor=none;fillColor=#F45B69;strokeColor=#028090;fontColor=#E4FDE1;" parent="1" vertex="1">
          <mxGeometry x="6950" y="5190" width="100" height="850" as="geometry" />
        </mxCell>
        <mxCell id="Rm50v2PJgr8li1-ztX7_-14" value="" style="html=1;points=[[0,0,0,0,5],[0,1,0,0,-5],[1,0,0,0,5],[1,1,0,0,-5]];perimeter=orthogonalPerimeter;outlineConnect=0;targetShapes=umlLifeline;portConstraint=eastwest;newEdgeStyle={&quot;curved&quot;:0,&quot;rounded&quot;:0};labelBackgroundColor=none;fillColor=#F45B69;strokeColor=#028090;fontColor=#E4FDE1;" parent="Rm50v2PJgr8li1-ztX7_-2" vertex="1">
          <mxGeometry x="40" y="60" width="20" height="80" as="geometry" />
        </mxCell>
        <mxCell id="Rm50v2PJgr8li1-ztX7_-46" value="" style="html=1;points=[[0,0,0,0,5],[0,1,0,0,-5],[1,0,0,0,5],[1,1,0,0,-5]];perimeter=orthogonalPerimeter;outlineConnect=0;targetShapes=umlLifeline;portConstraint=eastwest;newEdgeStyle={&quot;curved&quot;:0,&quot;rounded&quot;:0};labelBackgroundColor=none;fillColor=#F45B69;strokeColor=#028090;fontColor=#E4FDE1;" parent="Rm50v2PJgr8li1-ztX7_-2" vertex="1">
          <mxGeometry x="40" y="250" width="20" height="80" as="geometry" />
        </mxCell>
        <mxCell id="Rm50v2PJgr8li1-ztX7_-55" value="" style="html=1;points=[[0,0,0,0,5],[0,1,0,0,-5],[1,0,0,0,5],[1,1,0,0,-5]];perimeter=orthogonalPerimeter;outlineConnect=0;targetShapes=umlLifeline;portConstraint=eastwest;newEdgeStyle={&quot;curved&quot;:0,&quot;rounded&quot;:0};labelBackgroundColor=none;fillColor=#F45B69;strokeColor=#028090;fontColor=#E4FDE1;" parent="Rm50v2PJgr8li1-ztX7_-2" vertex="1">
          <mxGeometry x="45" y="450" width="15" height="80" as="geometry" />
        </mxCell>
        <mxCell id="Rm50v2PJgr8li1-ztX7_-3" value="Teacher" style="shape=umlLifeline;perimeter=lifelinePerimeter;whiteSpace=wrap;html=1;container=1;dropTarget=0;collapsible=0;recursiveResize=0;outlineConnect=0;portConstraint=eastwest;newEdgeStyle={&quot;curved&quot;:0,&quot;rounded&quot;:0};labelBackgroundColor=none;fillColor=#F45B69;strokeColor=#028090;fontColor=#E4FDE1;" parent="1" vertex="1">
          <mxGeometry x="7100" y="5190" width="100" height="850" as="geometry" />
        </mxCell>
        <mxCell id="Rm50v2PJgr8li1-ztX7_-31" value="" style="html=1;points=[[0,0,0,0,5],[0,1,0,0,-5],[1,0,0,0,5],[1,1,0,0,-5]];perimeter=orthogonalPerimeter;outlineConnect=0;targetShapes=umlLifeline;portConstraint=eastwest;newEdgeStyle={&quot;curved&quot;:0,&quot;rounded&quot;:0};labelBackgroundColor=none;fillColor=#F45B69;strokeColor=#028090;fontColor=#E4FDE1;" parent="Rm50v2PJgr8li1-ztX7_-3" vertex="1">
          <mxGeometry x="40" y="60" width="20" height="80" as="geometry" />
        </mxCell>
        <mxCell id="L1MMbvrIw0b0SEC1UpdS-1" value="" style="html=1;points=[[0,0,0,0,5],[0,1,0,0,-5],[1,0,0,0,5],[1,1,0,0,-5]];perimeter=orthogonalPerimeter;outlineConnect=0;targetShapes=umlLifeline;portConstraint=eastwest;newEdgeStyle={&quot;curved&quot;:0,&quot;rounded&quot;:0};labelBackgroundColor=none;fillColor=#F45B69;strokeColor=#028090;fontColor=#E4FDE1;" parent="Rm50v2PJgr8li1-ztX7_-3" vertex="1">
          <mxGeometry x="40" y="250" width="20" height="80" as="geometry" />
        </mxCell>
        <mxCell id="Rm50v2PJgr8li1-ztX7_-4" value="Test Paper" style="shape=umlLifeline;perimeter=lifelinePerimeter;whiteSpace=wrap;html=1;container=1;dropTarget=0;collapsible=0;recursiveResize=0;outlineConnect=0;portConstraint=eastwest;newEdgeStyle={&quot;curved&quot;:0,&quot;rounded&quot;:0};labelBackgroundColor=none;fillColor=#F45B69;strokeColor=#028090;fontColor=#E4FDE1;" parent="1" vertex="1">
          <mxGeometry x="7250" y="5190" width="100" height="850" as="geometry" />
        </mxCell>
        <mxCell id="Rm50v2PJgr8li1-ztX7_-28" value="" style="html=1;points=[[0,0,0,0,5],[0,1,0,0,-5],[1,0,0,0,5],[1,1,0,0,-5]];perimeter=orthogonalPerimeter;outlineConnect=0;targetShapes=umlLifeline;portConstraint=eastwest;newEdgeStyle={&quot;curved&quot;:0,&quot;rounded&quot;:0};labelBackgroundColor=none;fillColor=#F45B69;strokeColor=#028090;fontColor=#E4FDE1;" parent="Rm50v2PJgr8li1-ztX7_-4" vertex="1">
          <mxGeometry x="40" y="60" width="20" height="80" as="geometry" />
        </mxCell>
        <mxCell id="Rm50v2PJgr8li1-ztX7_-52" value="" style="html=1;points=[[0,0,0,0,5],[0,1,0,0,-5],[1,0,0,0,5],[1,1,0,0,-5]];perimeter=orthogonalPerimeter;outlineConnect=0;targetShapes=umlLifeline;portConstraint=eastwest;newEdgeStyle={&quot;curved&quot;:0,&quot;rounded&quot;:0};labelBackgroundColor=none;fillColor=#F45B69;strokeColor=#028090;fontColor=#E4FDE1;" parent="Rm50v2PJgr8li1-ztX7_-4" vertex="1">
          <mxGeometry x="40" y="450" width="20" height="80" as="geometry" />
        </mxCell>
        <mxCell id="Rm50v2PJgr8li1-ztX7_-8" value="Class" style="shape=umlLifeline;perimeter=lifelinePerimeter;whiteSpace=wrap;html=1;container=1;dropTarget=0;collapsible=0;recursiveResize=0;outlineConnect=0;portConstraint=eastwest;newEdgeStyle={&quot;curved&quot;:0,&quot;rounded&quot;:0};labelBackgroundColor=none;fillColor=#F45B69;strokeColor=#028090;fontColor=#E4FDE1;" parent="1" vertex="1">
          <mxGeometry x="7400" y="5190" width="100" height="850" as="geometry" />
        </mxCell>
        <mxCell id="Rm50v2PJgr8li1-ztX7_-32" value="" style="html=1;points=[[0,0,0,0,5],[0,1,0,0,-5],[1,0,0,0,5],[1,1,0,0,-5]];perimeter=orthogonalPerimeter;outlineConnect=0;targetShapes=umlLifeline;portConstraint=eastwest;newEdgeStyle={&quot;curved&quot;:0,&quot;rounded&quot;:0};labelBackgroundColor=none;fillColor=#F45B69;strokeColor=#028090;fontColor=#E4FDE1;" parent="Rm50v2PJgr8li1-ztX7_-8" vertex="1">
          <mxGeometry x="40" y="80" width="20" height="40" as="geometry" />
        </mxCell>
        <mxCell id="Rm50v2PJgr8li1-ztX7_-33" value="Display Class" style="html=1;align=left;spacingLeft=2;endArrow=block;rounded=0;edgeStyle=orthogonalEdgeStyle;curved=0;rounded=0;labelBackgroundColor=none;fontColor=default;strokeColor=#028090;" parent="Rm50v2PJgr8li1-ztX7_-8" target="Rm50v2PJgr8li1-ztX7_-32" edge="1">
          <mxGeometry relative="1" as="geometry">
            <mxPoint x="55" y="60" as="sourcePoint" />
            <Array as="points">
              <mxPoint x="85" y="90" />
            </Array>
          </mxGeometry>
        </mxCell>
        <mxCell id="Rm50v2PJgr8li1-ztX7_-42" value="" style="html=1;points=[[0,0,0,0,5],[0,1,0,0,-5],[1,0,0,0,5],[1,1,0,0,-5]];perimeter=orthogonalPerimeter;outlineConnect=0;targetShapes=umlLifeline;portConstraint=eastwest;newEdgeStyle={&quot;curved&quot;:0,&quot;rounded&quot;:0};labelBackgroundColor=none;fillColor=#F45B69;strokeColor=#028090;fontColor=#E4FDE1;" parent="Rm50v2PJgr8li1-ztX7_-8" vertex="1">
          <mxGeometry x="40" y="350" width="20" height="80" as="geometry" />
        </mxCell>
        <mxCell id="Rm50v2PJgr8li1-ztX7_-9" value="Subject" style="shape=umlLifeline;perimeter=lifelinePerimeter;whiteSpace=wrap;html=1;container=1;dropTarget=0;collapsible=0;recursiveResize=0;outlineConnect=0;portConstraint=eastwest;newEdgeStyle={&quot;curved&quot;:0,&quot;rounded&quot;:0};labelBackgroundColor=none;fillColor=#F45B69;strokeColor=#028090;fontColor=#E4FDE1;" parent="1" vertex="1">
          <mxGeometry x="7550" y="5190" width="100" height="850" as="geometry" />
        </mxCell>
        <mxCell id="Rm50v2PJgr8li1-ztX7_-35" value="" style="html=1;points=[[0,0,0,0,5],[0,1,0,0,-5],[1,0,0,0,5],[1,1,0,0,-5]];perimeter=orthogonalPerimeter;outlineConnect=0;targetShapes=umlLifeline;portConstraint=eastwest;newEdgeStyle={&quot;curved&quot;:0,&quot;rounded&quot;:0};labelBackgroundColor=none;fillColor=#F45B69;strokeColor=#028090;fontColor=#E4FDE1;" parent="Rm50v2PJgr8li1-ztX7_-9" vertex="1">
          <mxGeometry x="40" y="80" width="20" height="40" as="geometry" />
        </mxCell>
        <mxCell id="Rm50v2PJgr8li1-ztX7_-36" value="Display Subject" style="html=1;align=left;spacingLeft=2;endArrow=block;rounded=0;edgeStyle=orthogonalEdgeStyle;curved=0;rounded=0;labelBackgroundColor=none;fontColor=default;strokeColor=#028090;" parent="Rm50v2PJgr8li1-ztX7_-9" target="Rm50v2PJgr8li1-ztX7_-35" edge="1">
          <mxGeometry relative="1" as="geometry">
            <mxPoint x="55" y="60" as="sourcePoint" />
            <Array as="points">
              <mxPoint x="85" y="90" />
            </Array>
          </mxGeometry>
        </mxCell>
        <mxCell id="Rm50v2PJgr8li1-ztX7_-10" value="Division" style="shape=umlLifeline;perimeter=lifelinePerimeter;whiteSpace=wrap;html=1;container=1;dropTarget=0;collapsible=0;recursiveResize=0;outlineConnect=0;portConstraint=eastwest;newEdgeStyle={&quot;curved&quot;:0,&quot;rounded&quot;:0};labelBackgroundColor=none;fillColor=#F45B69;strokeColor=#028090;fontColor=#E4FDE1;" parent="1" vertex="1">
          <mxGeometry x="7700" y="5190" width="100" height="850" as="geometry" />
        </mxCell>
        <mxCell id="Rm50v2PJgr8li1-ztX7_-40" value="" style="html=1;points=[[0,0,0,0,5],[0,1,0,0,-5],[1,0,0,0,5],[1,1,0,0,-5]];perimeter=orthogonalPerimeter;outlineConnect=0;targetShapes=umlLifeline;portConstraint=eastwest;newEdgeStyle={&quot;curved&quot;:0,&quot;rounded&quot;:0};labelBackgroundColor=none;fillColor=#F45B69;strokeColor=#028090;fontColor=#E4FDE1;" parent="Rm50v2PJgr8li1-ztX7_-10" vertex="1">
          <mxGeometry x="40" y="80" width="20" height="40" as="geometry" />
        </mxCell>
        <mxCell id="Rm50v2PJgr8li1-ztX7_-41" value="Display Division" style="html=1;align=left;spacingLeft=2;endArrow=block;rounded=0;edgeStyle=orthogonalEdgeStyle;curved=0;rounded=0;labelBackgroundColor=none;fontColor=default;strokeColor=#028090;" parent="Rm50v2PJgr8li1-ztX7_-10" target="Rm50v2PJgr8li1-ztX7_-40" edge="1">
          <mxGeometry relative="1" as="geometry">
            <mxPoint x="55" y="60" as="sourcePoint" />
            <Array as="points">
              <mxPoint x="85" y="90" />
            </Array>
          </mxGeometry>
        </mxCell>
        <mxCell id="Rm50v2PJgr8li1-ztX7_-56" value="" style="html=1;points=[[0,0,0,0,5],[0,1,0,0,-5],[1,0,0,0,5],[1,1,0,0,-5]];perimeter=orthogonalPerimeter;outlineConnect=0;targetShapes=umlLifeline;portConstraint=eastwest;newEdgeStyle={&quot;curved&quot;:0,&quot;rounded&quot;:0};labelBackgroundColor=none;fillColor=#F45B69;strokeColor=#028090;fontColor=#E4FDE1;" parent="Rm50v2PJgr8li1-ztX7_-10" vertex="1">
          <mxGeometry x="40" y="560" width="20" height="80" as="geometry" />
        </mxCell>
        <mxCell id="L1MMbvrIw0b0SEC1UpdS-11" value="" style="html=1;points=[[0,0,0,0,5],[0,1,0,0,-5],[1,0,0,0,5],[1,1,0,0,-5]];perimeter=orthogonalPerimeter;outlineConnect=0;targetShapes=umlLifeline;portConstraint=eastwest;newEdgeStyle={&quot;curved&quot;:0,&quot;rounded&quot;:0};labelBackgroundColor=none;fillColor=#F45B69;strokeColor=#028090;fontColor=#E4FDE1;" parent="Rm50v2PJgr8li1-ztX7_-10" vertex="1">
          <mxGeometry x="40" y="680" width="20" height="80" as="geometry" />
        </mxCell>
        <mxCell id="Rm50v2PJgr8li1-ztX7_-15" value="add/modify Student" style="html=1;verticalAlign=bottom;endArrow=block;curved=0;rounded=0;entryX=0;entryY=0;entryDx=0;entryDy=5;labelBackgroundColor=none;fontColor=default;strokeColor=#028090;" parent="1" edge="1">
          <mxGeometry relative="1" as="geometry">
            <mxPoint x="6849.5" y="5250" as="sourcePoint" />
            <mxPoint x="6990" y="5250" as="targetPoint" />
          </mxGeometry>
        </mxCell>
        <mxCell id="Rm50v2PJgr8li1-ztX7_-16" value="return" style="html=1;verticalAlign=bottom;endArrow=open;dashed=1;endSize=8;curved=0;rounded=0;exitX=0;exitY=1;exitDx=0;exitDy=-5;labelBackgroundColor=none;fontColor=default;strokeColor=#028090;" parent="1" target="Rm50v2PJgr8li1-ztX7_-17" edge="1">
          <mxGeometry relative="1" as="geometry">
            <mxPoint x="6860" y="5330" as="targetPoint" />
            <mxPoint x="6990" y="5330" as="sourcePoint" />
          </mxGeometry>
        </mxCell>
        <mxCell id="Rm50v2PJgr8li1-ztX7_-18" value="" style="html=1;points=[[0,0,0,0,5],[0,1,0,0,-5],[1,0,0,0,5],[1,1,0,0,-5]];perimeter=orthogonalPerimeter;outlineConnect=0;targetShapes=umlLifeline;portConstraint=eastwest;newEdgeStyle={&quot;curved&quot;:0,&quot;rounded&quot;:0};labelBackgroundColor=none;fillColor=#F45B69;strokeColor=#028090;fontColor=#E4FDE1;" parent="1" vertex="1">
          <mxGeometry x="7140" y="5350" width="20" height="80" as="geometry" />
        </mxCell>
        <mxCell id="Rm50v2PJgr8li1-ztX7_-19" value="Hire Teacher" style="html=1;verticalAlign=bottom;endArrow=block;curved=0;rounded=0;entryX=0;entryY=0;entryDx=0;entryDy=5;labelBackgroundColor=none;fontColor=default;strokeColor=#028090;" parent="1" edge="1">
          <mxGeometry relative="1" as="geometry">
            <mxPoint x="6849.5" y="5350" as="sourcePoint" />
            <mxPoint x="7140" y="5350" as="targetPoint" />
          </mxGeometry>
        </mxCell>
        <mxCell id="Rm50v2PJgr8li1-ztX7_-20" value="return" style="html=1;verticalAlign=bottom;endArrow=open;dashed=1;endSize=8;curved=0;rounded=0;exitX=0;exitY=1;exitDx=0;exitDy=-5;labelBackgroundColor=none;fontColor=default;strokeColor=#028090;" parent="1" target="Rm50v2PJgr8li1-ztX7_-21" edge="1">
          <mxGeometry relative="1" as="geometry">
            <mxPoint x="6860" y="5430" as="targetPoint" />
            <mxPoint x="7140" y="5430" as="sourcePoint" />
          </mxGeometry>
        </mxCell>
        <mxCell id="Rm50v2PJgr8li1-ztX7_-29" value="Prepare Test Paper" style="html=1;verticalAlign=bottom;endArrow=block;curved=0;rounded=0;entryX=0;entryY=0;entryDx=0;entryDy=5;labelBackgroundColor=none;fontColor=default;strokeColor=#028090;" parent="1" edge="1">
          <mxGeometry relative="1" as="geometry">
            <mxPoint x="7149.5" y="5250" as="sourcePoint" />
            <mxPoint x="7290" y="5250" as="targetPoint" />
          </mxGeometry>
        </mxCell>
        <mxCell id="Rm50v2PJgr8li1-ztX7_-30" value="return" style="html=1;verticalAlign=bottom;endArrow=open;dashed=1;endSize=8;curved=0;rounded=0;exitX=0;exitY=1;exitDx=0;exitDy=-5;labelBackgroundColor=none;fontColor=default;strokeColor=#028090;" parent="1" edge="1">
          <mxGeometry relative="1" as="geometry">
            <mxPoint x="7160" y="5330" as="targetPoint" />
            <mxPoint x="7290" y="5330" as="sourcePoint" />
          </mxGeometry>
        </mxCell>
        <mxCell id="Rm50v2PJgr8li1-ztX7_-43" value="Add/Modiy Class" style="html=1;verticalAlign=bottom;endArrow=block;curved=0;rounded=0;entryX=0;entryY=0;entryDx=0;entryDy=5;labelBackgroundColor=none;fontColor=default;strokeColor=#028090;" parent="1" edge="1">
          <mxGeometry relative="1" as="geometry">
            <mxPoint x="6849.5" y="5540" as="sourcePoint" />
            <mxPoint x="7440" y="5540" as="targetPoint" />
          </mxGeometry>
        </mxCell>
        <mxCell id="Rm50v2PJgr8li1-ztX7_-44" value="return" style="html=1;verticalAlign=bottom;endArrow=open;dashed=1;endSize=8;curved=0;rounded=0;exitX=0;exitY=1;exitDx=0;exitDy=-5;labelBackgroundColor=none;fontColor=default;strokeColor=#028090;" parent="1" edge="1">
          <mxGeometry relative="1" as="geometry">
            <mxPoint x="6860" y="5620" as="targetPoint" />
            <mxPoint x="7440" y="5620" as="sourcePoint" />
          </mxGeometry>
        </mxCell>
        <mxCell id="Rm50v2PJgr8li1-ztX7_-47" value="Mark Attendance" style="html=1;verticalAlign=bottom;endArrow=block;curved=0;rounded=0;entryX=1;entryY=0;entryDx=0;entryDy=5;labelBackgroundColor=none;fontColor=default;strokeColor=#028090;" parent="1" edge="1">
          <mxGeometry relative="1" as="geometry">
            <mxPoint x="7149.5" y="5440" as="sourcePoint" />
            <mxPoint x="7010" y="5440" as="targetPoint" />
          </mxGeometry>
        </mxCell>
        <mxCell id="Rm50v2PJgr8li1-ztX7_-48" value="return" style="html=1;verticalAlign=bottom;endArrow=open;dashed=1;endSize=8;curved=0;rounded=0;exitX=1;exitY=1;exitDx=0;exitDy=-5;labelBackgroundColor=none;fontColor=default;strokeColor=#028090;" parent="1" edge="1">
          <mxGeometry relative="1" as="geometry">
            <mxPoint x="7140" y="5520" as="targetPoint" />
            <mxPoint x="7010" y="5520" as="sourcePoint" />
          </mxGeometry>
        </mxCell>
        <mxCell id="Rm50v2PJgr8li1-ztX7_-53" value="Take Test" style="html=1;verticalAlign=bottom;endArrow=block;curved=0;rounded=0;entryX=0;entryY=0;entryDx=0;entryDy=5;labelBackgroundColor=none;fontColor=default;strokeColor=#028090;" parent="1" edge="1">
          <mxGeometry relative="1" as="geometry">
            <mxPoint x="6999.928571428572" y="5640" as="sourcePoint" />
            <mxPoint x="7290" y="5640" as="targetPoint" />
          </mxGeometry>
        </mxCell>
        <mxCell id="Rm50v2PJgr8li1-ztX7_-54" value="return" style="html=1;verticalAlign=bottom;endArrow=open;dashed=1;endSize=8;curved=0;rounded=0;exitX=0;exitY=1;exitDx=0;exitDy=-5;labelBackgroundColor=none;fontColor=default;strokeColor=#028090;" parent="1" edge="1">
          <mxGeometry relative="1" as="geometry">
            <mxPoint x="7010" y="5720" as="targetPoint" />
            <mxPoint x="7290" y="5720" as="sourcePoint" />
          </mxGeometry>
        </mxCell>
        <mxCell id="Rm50v2PJgr8li1-ztX7_-57" value="Add/Modify Division" style="html=1;verticalAlign=bottom;endArrow=block;curved=0;rounded=0;entryX=0;entryY=0;entryDx=0;entryDy=5;labelBackgroundColor=none;fontColor=default;strokeColor=#028090;" parent="1" edge="1">
          <mxGeometry relative="1" as="geometry">
            <mxPoint x="6849.928571428572" y="5750" as="sourcePoint" />
            <mxPoint x="7740" y="5750" as="targetPoint" />
          </mxGeometry>
        </mxCell>
        <mxCell id="Rm50v2PJgr8li1-ztX7_-58" value="return" style="html=1;verticalAlign=bottom;endArrow=open;dashed=1;endSize=8;curved=0;rounded=0;exitX=0;exitY=1;exitDx=0;exitDy=-5;labelBackgroundColor=none;fontColor=default;strokeColor=#028090;" parent="1" target="Rm50v2PJgr8li1-ztX7_-59" edge="1">
          <mxGeometry relative="1" as="geometry">
            <mxPoint x="6860" y="5830" as="targetPoint" />
            <mxPoint x="7740" y="5830" as="sourcePoint" />
          </mxGeometry>
        </mxCell>
        <mxCell id="L1MMbvrIw0b0SEC1UpdS-12" value="Assign Teacher To Division&amp;nbsp;" style="html=1;verticalAlign=bottom;endArrow=block;curved=0;rounded=0;fontColor=default;labelBackgroundColor=none;strokeColor=#028090;" parent="1" edge="1">
          <mxGeometry relative="1" as="geometry">
            <mxPoint x="6850.1" y="5870" as="sourcePoint" />
            <mxPoint x="7740" y="5870" as="targetPoint" />
          </mxGeometry>
        </mxCell>
        <mxCell id="L1MMbvrIw0b0SEC1UpdS-13" value="return" style="html=1;verticalAlign=bottom;endArrow=open;dashed=1;endSize=8;curved=0;rounded=0;exitX=0;exitY=1;exitDx=0;exitDy=-5;fontColor=default;labelBackgroundColor=none;strokeColor=#028090;" parent="1" edge="1">
          <mxGeometry relative="1" as="geometry">
            <mxPoint x="6850.1" y="5950" as="targetPoint" />
            <mxPoint x="7740" y="5950" as="sourcePoint" />
          </mxGeometry>
        </mxCell>
      </root>
    </mxGraphModel>
  </diagram>
</mxfile>
